<svg width="24" height="24" viewBox="0 0 24 24" fill="none" xmlns="http://www.w3.org/2000/svg">
<path d="M4.48413 1.10696C4.10921 1.11829 3.77984 1.31615 3.50415 1.59182L3.04419 2.05104L8.02906 7.12673L8.75269 6.4031C9.1888 5.967 9.18879 5.24693 8.75269 4.81082L5.53296 1.59182C5.22111 1.27996 4.85904 1.09543 4.48413 1.10696ZM2.51245 2.58133L1.98438 3.10867C1.12028 3.97276 1.12598 5.10339 1.12598 5.62528C1.12598 7.78474 1.9893 11.5181 7.23511 16.7639C12.4809 22.0098 16.215 22.8738 18.3745 22.8738C18.8964 22.8738 20.027 22.8795 20.8911 22.0154L21.3687 21.5378L16.3838 16.4622L15.8608 16.9859C15.5509 17.2958 15.3222 17.3328 15.0999 17.3066C14.8775 17.2806 14.6476 17.1519 14.4795 17.0217C13.5628 16.312 12.0786 15.2962 10.3911 13.6087C8.70361 11.9212 7.68774 10.4362 6.97803 9.51954C6.84792 9.35143 6.71927 9.12448 6.69312 8.9021C6.66691 8.67972 6.70715 8.44813 7.01685 8.13821L7.49805 7.65701L2.51245 2.58133ZM18.3921 14.9197C18.1032 14.9197 17.8147 15.029 17.5967 15.2471L16.9141 15.9305L21.8997 21.0068L22.408 20.4986C22.6836 20.2229 22.8806 19.8906 22.8921 19.5156C22.9034 19.1407 22.7198 18.7787 22.408 18.4668L19.1882 15.2471C18.9702 15.029 18.681 14.9197 18.3921 14.9197Z" fill="#FF6600"/>
</svg>
