<svg width="81" height="49" viewBox="0 0 81 49" fill="none" xmlns="http://www.w3.org/2000/svg">
<path d="M78.0701 39.6641C74.294 41.6738 70.096 42.6784 65.4665 42.6784C60.1129 42.6784 55.7764 41.0488 52.4574 37.7812C49.1384 34.514 47.4832 30.1907 47.4832 24.8122C47.4832 19.3155 49.2938 14.8069 52.9227 11.2858C56.5526 7.76478 61.1647 6 66.7504 6C70.7766 6 74.1646 6.57441 76.9058 7.73073V13.8013C74.1298 11.9779 70.8195 11.066 66.9836 11.066C63.1215 11.066 59.9662 12.3155 57.5006 14.8059C55.0345 17.2968 53.7935 20.5224 53.7935 24.4907C53.7935 28.5691 54.8621 31.7687 56.9831 34.1074C59.1036 36.4466 61.9833 37.6114 65.6214 37.6114C68.1131 37.6114 70.2683 37.1386 72.0871 36.2012V27.7834H64.4571V22.8185H78.0696V39.6631L78.0701 39.6641ZM40.8882 42.0704H34.9313V19.1212C34.9313 17.2387 35.0519 14.9416 35.2846 12.2228H35.1813C34.8106 13.7683 34.4828 14.8825 34.1985 15.5581L23.3881 42.0699H19.25L8.41404 15.7604C8.11236 14.9837 7.7846 13.8013 7.44866 12.2228H7.35355C7.48292 13.6416 7.55195 15.9552 7.55195 19.1718V42.0699H2V6.60796H10.4573L19.9745 30.2242C20.6986 32.0396 21.1731 33.3907 21.397 34.2766H21.5177C22.1472 32.4192 22.6472 31.0345 23.0348 30.1226L32.7336 6.60796H40.8887V42.0699L40.8882 42.0704Z" fill="#EF7F1A"/>
</svg>
