<svg width="195" height="76" viewBox="0 0 195 76" fill="none" xmlns="http://www.w3.org/2000/svg">
<g clip-path="url(#clip0_2058_14717)">
<path d="M11.3407 67.9661V68.8835H10.1478V67.9661H10.0005C9.12306 67.9661 8.40005 67.6811 7.82941 67.1137C7.25724 66.5463 6.97192 65.8467 6.97192 65.0154C6.97192 64.2192 7.25008 63.5481 7.80794 63.0032C8.36579 62.4604 9.07806 62.188 9.9468 62.188H10.1478V61.3021H11.3407V62.188H11.4987C12.3889 62.188 13.1134 62.4549 13.6718 62.9912C14.2317 63.5271 14.5099 64.2021 14.5099 65.0159C14.5099 65.8367 14.2245 66.5323 13.6539 67.1072C13.0812 67.6801 12.3582 67.9666 11.4828 67.9666H11.3412L11.3407 67.9661ZM11.3407 63.1475V66.9855H11.4608C11.9936 66.9855 12.4191 66.8083 12.7386 66.4547C13.0577 66.1016 13.2177 65.6289 13.2177 65.0385C13.2177 64.4706 13.0582 64.0138 12.7386 63.6678C12.4191 63.3218 11.9906 63.1475 11.4501 63.1475H11.3407ZM10.1478 66.9855V63.1475H10.0312C9.50195 63.1475 9.07653 63.3233 8.75184 63.6748C8.42715 64.0279 8.26557 64.4816 8.26557 65.0385C8.26557 65.6324 8.42511 66.1051 8.74622 66.4582C9.06733 66.8098 9.4907 66.9855 10.0199 66.9855H10.1472H10.1478ZM17.0757 66.1843V68.8625H15.8306V61.4818H18.1167C18.9814 61.4818 19.6527 61.6787 20.1298 62.0743C20.6069 62.4679 20.8457 63.0233 20.8457 63.7404C20.8457 64.4575 20.5961 65.0445 20.0976 65.5012C19.6006 65.9564 18.9277 66.1848 18.0789 66.1848H17.0757V66.1843ZM17.0757 62.4939V65.1827H17.8851C18.4215 65.1827 18.829 65.0615 19.1107 64.8191C19.3904 64.5747 19.5305 64.2337 19.5305 63.793C19.5305 62.9266 19.0156 62.4944 17.9858 62.4944H17.0762L17.0757 62.4939ZM26.3541 68.8625H22.1229V61.4818H26.1854V62.5255H23.3736V64.6133H25.9645V65.6464H23.3736V67.8289H26.3541V68.862V68.8625ZM27.2101 68.576V67.3967C27.8022 67.8113 28.4751 68.0187 29.2288 68.0187C29.7222 68.0187 30.117 67.906 30.4094 67.6811C30.7019 67.4563 30.8471 67.1538 30.8471 66.7762C30.8471 65.9519 30.2535 65.5408 29.0652 65.5408H28.1985V64.5812H29.013C29.5172 64.5812 29.9084 64.4776 30.185 64.2718C30.4631 64.0659 30.6012 63.776 30.6012 63.4019C30.6012 63.0784 30.4826 62.8205 30.2479 62.6272C30.0147 62.4318 29.6916 62.3352 29.2804 62.3352C28.6577 62.3352 28.0497 62.5215 27.4576 62.8941V61.8029C28.039 61.5039 28.7098 61.3546 29.4707 61.3546C30.2279 61.3546 30.8236 61.5234 31.2577 61.8625C31.6918 62.2 31.9092 62.6427 31.9092 63.1925C31.9092 64.143 31.4244 64.7425 30.4539 64.9939V65.0149C30.9724 65.073 31.3851 65.2608 31.6918 65.5808C31.9971 65.9008 32.151 66.2959 32.151 66.7672C32.151 67.4438 31.8928 67.9831 31.3779 68.3857C30.863 68.7884 30.1594 68.9887 29.2661 68.9887C28.378 68.9887 27.6943 68.8515 27.2101 68.5755V68.576ZM37.8288 68.8625H33.5976V61.4818H37.66V62.5255H34.8482V64.6133H37.4391V65.6464H34.8482V67.8289H37.8288V68.862V68.8625ZM40.4145 66.1843V68.8625H39.1694V61.4818H41.4556C42.3202 61.4818 42.9916 61.6787 43.4686 62.0743C43.9457 62.4679 44.1845 63.0233 44.1845 63.7404C44.1845 64.4575 43.935 65.0445 43.4364 65.5012C42.9394 65.9564 42.2665 66.1848 41.4177 66.1848H40.4145V66.1843ZM40.4145 62.4939V65.1827H41.2239C41.7603 65.1827 42.1678 65.0615 42.4496 64.8191C42.7293 64.5747 42.8694 64.2337 42.8694 63.793C42.8694 62.9266 42.3545 62.4944 41.3247 62.4944H40.415L40.4145 62.4939ZM48.5676 68.9892C47.482 68.9892 46.6118 68.6447 45.9567 67.9541C45.3038 67.2635 44.9771 66.3656 44.9771 65.2598C44.9771 64.0719 45.3109 63.1229 45.9767 62.4163C46.6424 61.7082 47.5464 61.3546 48.6877 61.3546C49.7467 61.3546 50.5985 61.6972 51.2464 62.3843C51.8922 63.0714 52.2153 63.9693 52.2153 65.0785C52.2153 66.2839 51.885 67.2364 51.2229 67.9375C50.5592 68.6386 49.6746 68.9882 48.5676 68.9882V68.9892ZM48.6248 62.4308C47.9356 62.4308 47.3741 62.6837 46.94 63.188C46.5074 63.6923 46.2906 64.3569 46.2906 65.1792C46.2906 66 46.5023 66.6605 46.9221 67.1613C47.3419 67.6621 47.8926 67.9135 48.5727 67.9135C49.2942 67.9135 49.8648 67.6746 50.281 67.1984C50.6972 66.7206 50.9074 66.0526 50.9074 65.1952C50.9074 64.3128 50.7049 63.6327 50.2989 63.1515C49.895 62.6717 49.3371 62.4308 48.6248 62.4308ZM53.5985 68.8625V61.4818H55.9904C56.7191 61.4818 57.2969 61.6381 57.7218 61.9491C58.1472 62.2621 58.3604 62.6677 58.3604 63.167C58.3604 63.5852 58.2382 63.9487 57.9979 64.2567C57.7555 64.5662 57.4201 64.7841 56.9931 64.9158V64.9353C57.5116 64.9949 57.9263 65.1832 58.2367 65.4992C58.5471 65.8172 58.7015 66.2303 58.7015 66.7396C58.7015 67.3706 58.4484 67.884 57.9406 68.2756C57.4308 68.6672 56.7907 68.8625 56.0155 68.8625H53.5985ZM54.8435 62.4624V64.5607H55.653C56.0871 64.5607 56.4281 64.4606 56.6756 64.2602C56.9231 64.0599 57.0453 63.775 57.0453 63.4079C57.0453 62.7769 56.6148 62.4624 55.7532 62.4624H54.8435ZM54.8435 65.5413V67.8819H55.9112C56.376 67.8819 56.7365 67.7763 56.9911 67.5655C57.2442 67.3526 57.3715 67.0627 57.3715 66.6906C57.3715 65.9244 56.8295 65.5413 55.7476 65.5413H54.843H54.8435ZM65.8032 68.8625H64.1742L61.5511 65.4867C61.4524 65.3585 61.3931 65.2738 61.3737 65.2283H61.3522V68.8625H60.1015V61.4818H61.3522V64.9508H61.3737C61.4151 64.8752 61.4739 64.7911 61.5511 64.6994L64.0791 61.4818H65.5772L62.6182 65.0229L65.8032 68.8625ZM72.8692 68.8625H71.4963L70.8183 66.9855H67.8542L67.2027 68.8625H65.8355L68.658 61.4818H70.0667L72.8692 68.8625ZM70.488 65.984L69.4418 63.0423C69.4096 62.9457 69.3754 62.7909 69.3411 62.5786H69.3196C69.2889 62.7734 69.2531 62.9281 69.2153 63.0423L68.1783 65.984H70.4875H70.488Z" fill="black"/>
<path d="M124.957 62.4944H122.034V68.8104H120.783V61.4298H124.957V62.4944ZM127.3 66.1322V68.8104H126.055V61.4298H128.341C129.206 61.4298 129.877 61.6266 130.354 62.0222C130.831 62.4158 131.07 62.9712 131.07 63.6883C131.07 64.4054 130.821 64.9924 130.322 65.4491C129.825 65.9043 129.152 66.1327 128.303 66.1327H127.3V66.1322ZM127.3 62.4418V65.1306H128.11C128.646 65.1306 129.054 65.0094 129.335 64.767C129.615 64.5226 129.755 64.1821 129.755 63.7409C129.755 62.8745 129.24 62.4424 128.21 62.4424H127.301L127.3 62.4418ZM138.54 68.8104H137.167L136.488 66.9334H133.524L132.873 68.8104H131.505L134.328 61.4298H135.737L138.539 68.8104H138.54ZM136.158 65.9319L135.112 62.9902C135.08 62.8936 135.046 62.7388 135.012 62.5265H134.99C134.959 62.7218 134.924 62.876 134.886 62.9902L133.849 65.9319H136.158H136.158ZM139.575 68.8104V61.4298H141.967C142.695 61.4298 143.273 61.586 143.698 61.897C144.123 62.21 144.337 62.6156 144.337 63.1149C144.337 63.5331 144.214 63.8971 143.974 64.2046C143.732 64.5141 143.396 64.732 142.969 64.8637V64.8832C143.488 64.9428 143.902 65.1311 144.213 65.4471C144.523 65.7651 144.678 66.1782 144.678 66.6876C144.678 67.3185 144.424 67.8314 143.917 68.2235C143.407 68.6156 142.767 68.8104 141.992 68.8104H139.575ZM140.82 62.4103V64.5086H141.629C142.063 64.5086 142.404 64.4085 142.652 64.2081C142.899 64.0078 143.021 63.7234 143.021 63.3558C143.021 62.7248 142.591 62.4103 141.73 62.4103H140.82H140.82ZM140.82 65.4892V67.8299H141.887C142.352 67.8299 142.713 67.7242 142.967 67.5134C143.22 67.3005 143.348 67.0106 143.348 66.638C143.348 65.8718 142.806 65.4887 141.724 65.4887H140.819L140.82 65.4892ZM152.468 68.8104H151.264V63.8951C151.264 63.4524 151.282 63.1394 151.318 62.9587H151.285C151.226 63.1134 151.152 63.2556 151.065 63.3858L147.447 68.8109H146.077V61.4303H147.284V66.1242C147.284 66.6635 147.272 67.0151 147.243 67.1803H147.264C147.334 67.0416 147.426 66.8924 147.537 66.7271L151.027 61.4308H152.468V68.8114L152.468 68.8104ZM155.585 66.1322V68.8104H154.34V61.4298H156.626C157.49 61.4298 158.162 61.6266 158.639 62.0222C159.116 62.4158 159.355 62.9712 159.355 63.6883C159.355 64.4054 159.105 64.9924 158.607 65.4491C158.11 65.9043 157.437 66.1327 156.588 66.1327H155.585V66.1322ZM155.585 62.4418V65.1306H156.394C156.93 65.1306 157.338 65.0094 157.62 64.767C157.899 64.5226 158.039 64.1821 158.039 63.7409C158.039 62.8745 157.525 62.4424 156.495 62.4424H155.585L155.585 62.4418ZM163.738 68.9371C162.652 68.9371 161.782 68.5926 161.127 67.902C160.474 67.2114 160.147 66.3135 160.147 65.2077C160.147 64.0198 160.481 63.0708 161.146 62.3642C161.812 61.6561 162.716 61.3026 163.857 61.3026C164.916 61.3026 165.768 61.6451 166.416 62.3322C167.062 63.0193 167.385 63.9172 167.385 65.0264C167.385 66.2318 167.055 67.1843 166.392 67.8854C165.729 68.5865 164.844 68.9366 163.737 68.9366L163.738 68.9371ZM163.795 62.3787C163.106 62.3787 162.544 62.6316 162.11 63.1359C161.678 63.6402 161.461 64.3048 161.461 65.1271C161.461 65.9479 161.672 66.6084 162.092 67.1092C162.512 67.61 163.063 67.8614 163.743 67.8614C164.464 67.8614 165.035 67.6225 165.451 67.1463C165.867 66.6685 166.077 66.0005 166.077 65.1431C166.077 64.2607 165.875 63.5806 165.469 63.0994C165.065 62.6196 164.507 62.3787 163.795 62.3787ZM168.769 68.8104V61.4298H171.161C171.889 61.4298 172.467 61.586 172.892 61.897C173.317 62.21 173.531 62.6156 173.531 63.1149C173.531 63.5331 173.408 63.8971 173.168 64.2046C172.926 64.5141 172.59 64.732 172.163 64.8637V64.8832C172.682 64.9428 173.096 65.1311 173.407 65.4471C173.717 65.7651 173.872 66.1782 173.872 66.6876C173.872 67.3185 173.618 67.8314 173.111 68.2235C172.601 68.6156 171.961 68.8104 171.186 68.8104H168.769ZM170.014 62.4103V64.5086H170.823C171.257 64.5086 171.598 64.4085 171.846 64.2081C172.093 64.0078 172.215 63.7234 172.215 63.3558C172.215 62.7248 171.785 62.4103 170.923 62.4103H170.014ZM170.014 65.4892V67.8299H171.081C171.546 67.8299 171.907 67.7242 172.161 67.5134C172.414 67.3005 172.542 67.0106 172.542 66.638C172.542 65.8718 172 65.4887 170.918 65.4887H170.013L170.014 65.4892ZM180.973 68.8104H179.344L176.721 65.4346C176.623 65.3064 176.563 65.2217 176.544 65.1762H176.522V68.8104H175.272V61.4298H176.522V64.8987H176.544C176.585 64.8231 176.644 64.739 176.721 64.6473L179.249 61.4298H180.747L177.789 64.9708L180.974 68.8104H180.973ZM188.039 68.8104H186.666L185.988 66.9334H183.024L182.373 68.8104H181.006L183.828 61.4298H185.237L188.039 68.8104ZM185.659 65.9319L184.612 62.9902C184.58 62.8936 184.546 62.7388 184.512 62.5265H184.491C184.46 62.7218 184.424 62.876 184.386 62.9902L183.349 65.9319H185.659Z" fill="black"/>
<path d="M83.3625 66.1577V68.836H82.1174V61.4553H84.4036C85.2682 61.4553 85.9396 61.6521 86.4166 62.0478C86.8937 62.4414 87.1325 62.9968 87.1325 63.7139C87.1325 64.431 86.883 65.018 86.3844 65.4747C85.8874 65.9299 85.2145 66.1582 84.3657 66.1582H83.3625V66.1577ZM83.3625 62.4674V65.1562H84.1719C84.7083 65.1562 85.1158 65.035 85.3976 64.7926C85.6773 64.5482 85.8174 64.2077 85.8174 63.7665C85.8174 62.9001 85.3025 62.4679 84.2727 62.4679H83.363L83.3625 62.4674ZM92.641 68.836H88.4098V61.4553H92.4722V62.499H89.6605V64.5868H92.2514V65.6199H89.6605V67.8023H92.641V68.8355V68.836ZM93.4969 68.5495V67.3702C94.089 67.7848 94.7619 67.9921 95.5156 67.9921C96.0091 67.9921 96.4038 67.8795 96.6963 67.6546C96.9888 67.4298 97.134 67.1273 97.134 66.7497C97.134 65.9254 96.5398 65.5142 95.352 65.5142H94.4853V64.5547H95.2999C95.804 64.5547 96.1952 64.4511 96.4718 64.2452C96.75 64.0394 96.888 63.7494 96.888 63.3754C96.888 63.0518 96.7694 62.7934 96.5347 62.6006C96.3015 62.4053 95.9784 62.3087 95.5673 62.3087C94.9445 62.3087 94.3365 62.495 93.7444 62.8676V61.7763C94.3258 61.4774 94.9966 61.3281 95.7575 61.3281C96.5148 61.3281 97.1105 61.4969 97.5446 61.8359C97.9787 62.1735 98.196 62.6162 98.196 63.1665C98.196 64.117 97.7113 64.7165 96.7408 64.9679V64.9889C97.2592 65.047 97.6719 65.2348 97.9787 65.5548C98.2839 65.8748 98.4378 66.2699 98.4378 66.7412C98.4378 67.4177 98.1796 67.9571 97.6647 68.3597C97.1498 68.7624 96.4462 68.9627 95.553 68.9627C94.6648 68.9627 93.9812 68.8255 93.4969 68.5495ZM105.587 68.836H103.958L101.335 65.4601C101.236 65.3319 101.177 65.2473 101.157 65.2017H101.136V68.836H99.8849V61.4553H101.136V64.9243H101.157C101.198 64.8487 101.258 64.7646 101.335 64.6729L103.862 61.4553H105.361L102.402 64.9964L105.587 68.836H105.587ZM112.653 68.836H111.28L110.602 66.959H107.638L106.986 68.836H105.619L108.441 61.4553H109.85L112.653 68.836ZM110.272 65.9574L109.226 63.0158C109.194 62.9191 109.159 62.7644 109.126 62.5521H109.104C109.073 62.7474 109.038 62.9016 109 63.0158L107.963 65.9574H110.272Z" fill="black"/>
<path fill-rule="evenodd" clip-rule="evenodd" d="M76.9642 63.6838C77.7885 63.6838 78.4568 64.3384 78.4568 65.1456C78.4568 65.9529 77.7885 66.6075 76.9642 66.6075C76.14 66.6075 75.4717 65.9529 75.4717 65.1456C75.4717 64.3384 76.14 63.6838 76.9642 63.6838Z" fill="#EF7F1A"/>
<path fill-rule="evenodd" clip-rule="evenodd" d="M116.37 63.6838C117.194 63.6838 117.862 64.3384 117.862 65.1456C117.862 65.9529 117.194 66.6075 116.37 66.6075C115.545 66.6075 114.877 65.9529 114.877 65.1456C114.877 64.3384 115.545 63.6838 116.37 63.6838Z" fill="#EF7F1A"/>
<path d="M83.0427 41.0571C79.2666 43.0668 75.0686 44.0714 70.4391 44.0714C65.0856 44.0714 60.749 42.4418 57.43 39.1741C54.111 35.907 52.4559 31.5837 52.4559 26.2052C52.4559 20.7085 54.2665 16.1999 57.8953 12.6788C61.5252 9.15776 66.1374 7.39297 71.7231 7.39297C75.7492 7.39297 79.1372 7.96738 81.8784 9.12371V15.1943C79.1025 13.3709 75.7922 12.459 71.9562 12.459C68.0942 12.459 64.9388 13.7084 62.4732 16.1989C60.0071 18.6898 58.7661 21.9154 58.7661 25.8837C58.7661 29.9621 59.8348 33.1616 61.9558 35.5003C64.0762 37.8395 66.956 39.0044 70.5941 39.0044C73.0857 39.0044 75.241 38.5316 77.0597 37.5941V29.1764H69.4298V24.2115H83.0422V41.0561L83.0427 41.0571ZM45.8608 43.4634H39.9039V20.5142C39.9039 18.6317 40.0246 16.3346 40.2572 13.6158H40.154C39.7832 15.1612 39.4555 16.2755 39.1712 16.9511L28.3608 43.4629H24.2227L13.3867 17.1534C13.085 16.3767 12.7573 15.1943 12.4213 13.6158H12.3262C12.4556 15.0345 12.5246 17.3482 12.5246 20.5648V43.4629H6.97266V8.00093H15.4299L24.9472 31.6172C25.6712 33.4326 26.1457 34.7837 26.3697 35.6696H26.4904C27.1198 33.8122 27.6199 32.4275 28.0075 31.5155L37.7063 8.00093H45.8614V43.4629L45.8608 43.4634Z" fill="#EF7F1A"/>
<path d="M187.988 33.9444C187.414 33.5052 186.581 33.2859 185.503 33.2859C184.095 33.2859 182.919 33.9099 181.974 35.1513C181.028 36.3998 180.559 38.0935 180.559 40.2334V50.0754H175.797V29.4999H180.559V33.7451H180.643C181.105 32.2978 181.82 31.1595 182.786 30.3503C183.753 29.534 184.824 29.1293 186.014 29.1293C186.876 29.1293 187.534 29.2595 187.989 29.5134V33.9439L187.988 33.9444ZM166.666 37.7715C166.652 36.0978 166.253 34.7948 165.454 33.8623C164.663 32.9298 163.571 32.4631 162.177 32.4631C160.805 32.4631 159.649 32.9504 158.697 33.9309C157.745 34.9115 157.164 36.1875 156.946 37.7715H166.666ZM171.259 41.0637H156.946C156.996 42.9702 157.597 44.445 158.739 45.4806C159.88 46.5163 161.449 47.0306 163.445 47.0306C165.693 47.0306 167.745 46.372 169.621 45.055V48.8064C167.709 49.9792 165.175 50.5692 162.031 50.5692C158.943 50.5692 156.519 49.6367 154.762 47.7642C153.005 45.8918 152.122 43.2581 152.122 39.8703C152.122 36.6607 153.089 34.0546 155.028 32.0314C156.961 30.0147 159.363 29.0066 162.234 29.0066C165.112 29.0066 167.332 29.9121 168.908 31.7224C170.477 33.5333 171.261 36.0498 171.261 39.2733V41.0637H171.259ZM149.474 31.441L138.13 46.4542H149.433V50.0754H131.464V48.3336L143.053 33.1216H132.57V29.5004H149.474V31.4415V31.441ZM124.832 37.7715C124.818 36.0978 124.419 34.7948 123.621 33.8623C122.829 32.9298 121.737 32.4631 120.344 32.4631C118.972 32.4631 117.816 32.9504 116.864 33.9309C115.912 34.9115 115.33 36.1875 115.113 37.7715H124.833H124.832ZM129.426 41.0637H115.113C115.162 42.9702 115.763 44.445 116.905 45.4806C118.047 46.5163 119.615 47.0306 121.611 47.0306C123.859 47.0306 125.911 46.372 127.787 45.055V48.8064C125.875 49.9792 123.341 50.5692 120.197 50.5692C117.108 50.5692 114.686 49.6367 112.928 47.7642C111.17 45.8918 110.288 43.2581 110.288 39.8703C110.288 36.6607 111.254 34.0546 113.194 32.0314C115.127 30.0147 117.529 29.0066 120.4 29.0066C123.278 29.0066 125.498 29.9121 127.073 31.7224C128.642 33.5333 129.427 36.0498 129.427 39.2733V41.0637H129.426ZM108.278 33.9444C107.703 33.5052 106.871 33.2859 105.792 33.2859C104.384 33.2859 103.208 33.9099 102.262 35.1513C101.317 36.3998 100.848 38.0935 100.848 40.2334V50.0754H96.0862V29.4999H100.848V33.7451H100.933C101.395 32.2978 102.109 31.1595 103.075 30.3503C104.042 29.534 105.113 29.1293 106.303 29.1293C107.165 29.1293 107.823 29.2595 108.278 29.5134V33.9439L108.278 33.9444ZM93.4882 23.4098C92.8439 23.0532 92.1086 22.8745 91.289 22.8745C88.9783 22.8745 87.8227 24.15 87.8227 26.7085V29.4999H92.7038V33.1627H87.8437V50.0754H83.0822V33.1627H79.4968V29.4999H83.0822V26.1737C83.0822 24.0062 83.8103 22.2985 85.2599 21.0436C86.7096 19.7956 88.5232 19.1711 90.6938 19.1711C91.8703 19.1711 92.8015 19.2948 93.4877 19.5482V23.4098H93.4882Z" fill="black"/>
</g>
<defs>
<clipPath id="clip0_2058_14717">
<rect width="195" height="76" fill="white"/>
</clipPath>
</defs>
</svg>
