<svg width="195" height="76" viewBox="0 0 195 76" fill="none" xmlns="http://www.w3.org/2000/svg">
<g clip-path="url(#clip0_2058_14718)">
<path d="M11.3407 67.9661V68.8835H10.1477V67.9661H10.0005C9.12306 67.9661 8.40005 67.6811 7.82941 67.1137C7.25724 66.5463 6.97192 65.8467 6.97192 65.0154C6.97192 64.2192 7.25008 63.5481 7.80794 63.0032C8.36579 62.4604 9.07806 62.188 9.94679 62.188H10.1477V61.3021H11.3407V62.188H11.4987C12.3889 62.188 13.1134 62.4549 13.6718 62.9912C14.2317 63.5271 14.5098 64.2021 14.5098 65.0159C14.5098 65.8367 14.2245 66.5323 13.6539 67.1072C13.0812 67.6801 12.3582 67.9666 11.4828 67.9666H11.3412L11.3407 67.9661ZM11.3407 63.1475V66.9855H11.4608C11.9936 66.9855 12.419 66.8083 12.7386 66.4547C13.0577 66.1016 13.2177 65.6289 13.2177 65.0385C13.2177 64.4706 13.0582 64.0138 12.7386 63.6678C12.419 63.3217 11.9905 63.1475 11.4501 63.1475H11.3407ZM10.1477 66.9855V63.1475H10.0312C9.50195 63.1475 9.07652 63.3233 8.75184 63.6748C8.42715 64.0279 8.26557 64.4816 8.26557 65.0385C8.26557 65.6324 8.4251 66.1051 8.74621 66.4582C9.06732 66.8098 9.4907 66.9855 10.0199 66.9855H10.1472H10.1477ZM17.0756 66.1843V68.8625H15.8306V61.4818H18.1167C18.9813 61.4818 19.6527 61.6787 20.1298 62.0743C20.6068 62.4679 20.8456 63.0233 20.8456 63.7404C20.8456 64.4575 20.5961 65.0445 20.0976 65.5012C19.6006 65.9564 18.9277 66.1848 18.0789 66.1848H17.0756V66.1843ZM17.0756 62.4939V65.1827H17.8851C18.4214 65.1827 18.829 65.0615 19.1107 64.8191C19.3904 64.5747 19.5305 64.2337 19.5305 63.793C19.5305 62.9266 19.0156 62.4944 17.9858 62.4944H17.0762L17.0756 62.4939ZM26.3541 68.8625H22.1229V61.4818H26.1854V62.5255H23.3736V64.6133H25.9645V65.6464H23.3736V67.8289H26.3541V68.862V68.8625ZM27.21 68.576V67.3967C27.8022 67.8113 28.4751 68.0187 29.2287 68.0187C29.7222 68.0187 30.1169 67.906 30.4094 67.6811C30.7019 67.4563 30.8471 67.1538 30.8471 66.7762C30.8471 65.9519 30.2534 65.5408 29.0651 65.5408H28.1984V64.5812H29.013C29.5171 64.5812 29.9083 64.4776 30.1849 64.2718C30.4631 64.0659 30.6011 63.776 30.6011 63.4019C30.6011 63.0784 30.4825 62.8205 30.2478 62.6272C30.0147 62.4318 29.6915 62.3352 29.2804 62.3352C28.6576 62.3352 28.0496 62.5215 27.4575 62.8941V61.8029C28.0389 61.5039 28.7098 61.3546 29.4706 61.3546C30.2279 61.3546 30.8236 61.5234 31.2577 61.8625C31.6918 62.2 31.9091 62.6427 31.9091 63.1925C31.9091 64.143 31.4244 64.7425 30.4539 64.9939V65.0149C30.9724 65.073 31.385 65.2608 31.6918 65.5808C31.997 65.9008 32.151 66.2959 32.151 66.7672C32.151 67.4438 31.8927 67.9831 31.3778 68.3857C30.8629 68.7884 30.1594 68.9887 29.2661 68.9887C28.3779 68.9887 27.6943 68.8515 27.21 68.5755V68.576ZM37.8287 68.8625H33.5975V61.4818H37.6599V62.5255H34.8482V64.6133H37.439V65.6464H34.8482V67.8289H37.8287V68.862V68.8625ZM40.4144 66.1843V68.8625H39.1694V61.4818H41.4555C42.3201 61.4818 42.9915 61.6787 43.4686 62.0743C43.9456 62.4679 44.1844 63.0233 44.1844 63.7404C44.1844 64.4575 43.9349 65.0445 43.4363 65.5012C42.9393 65.9564 42.2664 66.1848 41.4176 66.1848H40.4144V66.1843ZM40.4144 62.4939V65.1827H41.2238C41.7602 65.1827 42.1678 65.0615 42.4495 64.8191C42.7292 64.5747 42.8693 64.2337 42.8693 63.793C42.8693 62.9266 42.3544 62.4944 41.3246 62.4944H40.4149L40.4144 62.4939ZM48.5675 68.9892C47.4819 68.9892 46.6117 68.6447 45.9566 67.9541C45.3037 67.2635 44.977 66.3656 44.977 65.2598C44.977 64.0719 45.3108 63.1229 45.9766 62.4163C46.6423 61.7082 47.5463 61.3546 48.6876 61.3546C49.7466 61.3546 50.5984 61.6972 51.2463 62.3843C51.8921 63.0714 52.2152 63.9693 52.2152 65.0785C52.2152 66.2839 51.8849 67.2364 51.2228 67.9375C50.5591 68.6386 49.6745 68.9882 48.5675 68.9882V68.9892ZM48.6247 62.4308C47.9355 62.4308 47.374 62.6837 46.9399 63.188C46.5073 63.6923 46.2905 64.3569 46.2905 65.1792C46.2905 66 46.5022 66.6605 46.922 67.1613C47.3418 67.6621 47.8925 67.9135 48.5726 67.9135C49.294 67.9135 49.8647 67.6746 50.2809 67.1984C50.6971 66.7206 50.9073 66.0526 50.9073 65.1952C50.9073 64.3128 50.7048 63.6327 50.2988 63.1515C49.8948 62.6717 49.337 62.4308 48.6247 62.4308ZM53.5984 68.8625V61.4818H55.9903C56.719 61.4818 57.2967 61.6381 57.7217 61.9491C58.1471 62.2621 58.3603 62.6677 58.3603 63.167C58.3603 63.5852 58.2381 63.9487 57.9978 64.2567C57.7554 64.5662 57.42 64.7841 56.993 64.9158V64.9353C57.5115 64.9949 57.9262 65.1832 58.2366 65.4992C58.5469 65.8172 58.7013 66.2303 58.7013 66.7396C58.7013 67.3706 58.4482 67.884 57.9405 68.2756C57.4307 68.6672 56.7905 68.8625 56.0154 68.8625H53.5984ZM54.8434 62.4624V64.5607H55.6528C56.087 64.5607 56.428 64.4606 56.6755 64.2602C56.923 64.0599 57.0452 63.775 57.0452 63.4079C57.0452 62.7769 56.6146 62.4624 55.7531 62.4624H54.8434ZM54.8434 65.5413V67.8819H55.9111C56.3759 67.8819 56.7363 67.7763 56.991 67.5655C57.2441 67.3526 57.3714 67.0627 57.3714 66.6906C57.3714 65.9244 56.8294 65.5413 55.7474 65.5413H54.8429H54.8434ZM65.8031 68.8625H64.174L61.5509 65.4867C61.4523 65.3585 61.3929 65.2738 61.3735 65.2283H61.352V68.8625H60.1013V61.4818H61.352V64.9508H61.3735C61.4149 64.8752 61.4737 64.7911 61.5509 64.6994L64.0789 61.4818H65.5771L62.6181 65.0229L65.8031 68.8625ZM72.8691 68.8625H71.4962L70.8181 66.9855H67.854L67.2026 68.8625H65.8353L68.6578 61.4818H70.0665L72.8691 68.8625ZM70.4878 65.984L69.4417 63.0423C69.4095 62.9457 69.3752 62.7909 69.3409 62.5786H69.3195C69.2888 62.7734 69.253 62.9281 69.2152 63.0423L68.1782 65.984H70.4873H70.4878Z" fill="#FEFEFE"/>
<path d="M124.905 62.52H121.982V68.8359H120.731V61.4553H124.905V62.52ZM127.248 66.1577V68.8359H126.003V61.4553H128.289C129.154 61.4553 129.825 61.6521 130.302 62.0477C130.779 62.4414 131.018 62.9967 131.018 63.7139C131.018 64.431 130.768 65.0179 130.27 65.4746C129.773 65.9299 129.1 66.1582 128.251 66.1582H127.248V66.1577ZM127.248 62.4674V65.1561H128.057C128.594 65.1561 129.001 65.0349 129.283 64.7926C129.563 64.5482 129.703 64.2076 129.703 63.7664C129.703 62.9001 129.188 62.4679 128.158 62.4679H127.249L127.248 62.4674ZM138.487 68.8359H137.114L136.436 66.959H133.472L132.82 68.8359H131.453L134.276 61.4553H135.684L138.487 68.8359H138.487ZM136.106 65.9574L135.06 63.0158C135.028 62.9191 134.994 62.7644 134.959 62.552H134.938C134.907 62.7473 134.871 62.9016 134.833 63.0158L133.797 65.9574H136.106H136.106ZM139.522 68.8359V61.4553H141.914C142.643 61.4553 143.221 61.6115 143.646 61.9225C144.071 62.2355 144.284 62.6412 144.284 63.1405C144.284 63.5586 144.162 63.9227 143.922 64.2302C143.679 64.5397 143.344 64.7575 142.917 64.8892V64.9087C143.435 64.9683 143.85 65.1566 144.16 65.4726C144.471 65.7906 144.625 66.2038 144.625 66.7131C144.625 67.3441 144.372 67.8569 143.864 68.249C143.355 68.6411 142.714 68.8359 141.939 68.8359H139.522ZM140.767 62.4358V64.5342H141.577C142.011 64.5342 142.352 64.434 142.599 64.2337C142.847 64.0334 142.969 63.7489 142.969 63.3813C142.969 62.7503 142.539 62.4358 141.678 62.4358H140.768H140.767ZM140.767 65.5147V67.8554H141.835C142.3 67.8554 142.66 67.7497 142.915 67.5389C143.168 67.3261 143.295 67.0361 143.295 66.6635C143.295 65.8973 142.753 65.5142 141.671 65.5142H140.767L140.767 65.5147ZM152.416 68.8359H151.212V63.9207C151.212 63.478 151.23 63.165 151.265 62.9842H151.233C151.174 63.1389 151.1 63.2812 151.012 63.4114L147.395 68.8364H146.024V61.4558H147.232V66.1497C147.232 66.6891 147.219 67.0406 147.191 67.2059H147.212C147.282 67.0672 147.374 66.9179 147.485 66.7527L150.974 61.4563H152.415V68.8369L152.416 68.8359ZM155.532 66.1577V68.8359H154.287V61.4553H156.573C157.438 61.4553 158.109 61.6521 158.586 62.0477C159.063 62.4414 159.302 62.9967 159.302 63.7139C159.302 64.431 159.053 65.0179 158.554 65.4746C158.057 65.9299 157.384 66.1582 156.536 66.1582H155.532V66.1577ZM155.532 62.4674V65.1561H156.342C156.878 65.1561 157.286 65.0349 157.567 64.7926C157.847 64.5482 157.987 64.2076 157.987 63.7664C157.987 62.9001 157.472 62.4679 156.442 62.4679H155.533L155.532 62.4674ZM163.685 68.9626C162.6 68.9626 161.73 68.6181 161.075 67.9275C160.422 67.2369 160.095 66.339 160.095 65.2333C160.095 64.0454 160.429 63.0964 161.094 62.3898C161.76 61.6816 162.664 61.3281 163.805 61.3281C164.864 61.3281 165.716 61.6706 166.364 62.3577C167.009 63.0448 167.333 63.9427 167.333 65.052C167.333 66.2574 167.002 67.2099 166.34 67.911C165.676 68.6121 164.792 68.9621 163.685 68.9621L163.685 68.9626ZM163.743 62.4043C163.054 62.4043 162.492 62.6572 162.058 63.1615C161.625 63.6658 161.408 64.3303 161.408 65.1526C161.408 65.9734 161.62 66.634 162.04 67.1348C162.46 67.6355 163.01 67.8869 163.69 67.8869C164.412 67.8869 164.983 67.6481 165.399 67.1718C165.815 66.6941 166.025 66.026 166.025 65.1687C166.025 64.2863 165.823 63.6062 165.417 63.1249C165.013 62.6452 164.455 62.4043 163.743 62.4043ZM168.716 68.8359V61.4553H171.108C171.837 61.4553 172.415 61.6115 172.84 61.9225C173.265 62.2355 173.478 62.6412 173.478 63.1405C173.478 63.5586 173.356 63.9227 173.116 64.2302C172.873 64.5397 172.538 64.7575 172.111 64.8892V64.9087C172.629 64.9683 173.044 65.1566 173.354 65.4726C173.665 65.7906 173.819 66.2038 173.819 66.7131C173.819 67.3441 173.566 67.8569 173.058 68.249C172.549 68.6411 171.908 68.8359 171.133 68.8359H168.716ZM169.961 62.4358V64.5342H170.771C171.205 64.5342 171.546 64.434 171.793 64.2337C172.041 64.0334 172.163 63.7489 172.163 63.3813C172.163 62.7503 171.733 62.4358 170.871 62.4358H169.961ZM169.961 65.5147V67.8554H171.029C171.494 67.8554 171.854 67.7497 172.109 67.5389C172.362 67.3261 172.489 67.0361 172.489 66.6635C172.489 65.8973 171.947 65.5142 170.865 65.5142H169.961L169.961 65.5147ZM180.921 68.8359H179.292L176.669 65.4601C176.57 65.3319 176.511 65.2473 176.491 65.2017H176.47V68.8359H175.219V61.4553H176.47V64.9243H176.491C176.533 64.8487 176.592 64.7645 176.669 64.6729L179.197 61.4553H180.695L177.736 64.9964L180.921 68.8359H180.921ZM187.987 68.8359H186.614L185.936 66.959H182.972L182.32 68.8359H180.953L183.776 61.4553H185.184L187.987 68.8359ZM185.606 65.9574L184.56 63.0158C184.528 62.9191 184.494 62.7644 184.46 62.552H184.438C184.408 62.7473 184.372 62.9016 184.334 63.0158L183.297 65.9574H185.606Z" fill="#FEFEFE"/>
<path d="M83.3623 66.1577V68.8359H82.1172V61.4553H84.4033C85.268 61.4553 85.9393 61.6521 86.4164 62.0477C86.8934 62.4414 87.1322 62.9967 87.1322 63.7139C87.1322 64.431 86.8827 65.0179 86.3842 65.4746C85.8872 65.9299 85.2143 66.1582 84.3655 66.1582H83.3623V66.1577ZM83.3623 62.4674V65.1561H84.1717C84.7081 65.1561 85.1156 65.0349 85.3973 64.7926C85.677 64.5482 85.8171 64.2076 85.8171 63.7664C85.8171 62.9001 85.3022 62.4679 84.2724 62.4679H83.3628L83.3623 62.4674ZM92.6407 68.8359H88.4095V61.4553H92.472V62.4989H89.6602V64.5867H92.2511V65.6199H89.6602V67.8023H92.6407V68.8354V68.8359ZM93.4967 68.5495V67.3701C94.0888 67.7848 94.7617 67.9921 95.5154 67.9921C96.0088 67.9921 96.4035 67.8794 96.696 67.6546C96.9885 67.4297 97.1337 67.1272 97.1337 66.7497C97.1337 65.9253 96.5395 65.5142 95.3517 65.5142H94.485V64.5547H95.2996C95.8037 64.5547 96.1949 64.451 96.4715 64.2452C96.7497 64.0394 96.8878 63.7494 96.8878 63.3753C96.8878 63.0518 96.7691 62.7934 96.5344 62.6006C96.3013 62.4053 95.9781 62.3086 95.567 62.3086C94.9442 62.3086 94.3363 62.4949 93.7441 62.8675V61.7763C94.3255 61.4773 94.9964 61.3281 95.7572 61.3281C96.5145 61.3281 97.1102 61.4969 97.5443 61.8359C97.9784 62.1734 98.1957 62.6161 98.1957 63.1665C98.1957 64.117 97.711 64.7164 96.7405 64.9678V64.9889C97.259 65.047 97.6716 65.2348 97.9784 65.5548C98.2837 65.8748 98.4376 66.2699 98.4376 66.7411C98.4376 67.4177 98.1794 67.9571 97.6644 68.3597C97.1495 68.7623 96.446 68.9626 95.5527 68.9626C94.6645 68.9626 93.9809 68.8254 93.4967 68.5495ZM105.586 68.8359H103.957L101.334 65.4601C101.236 65.3319 101.176 65.2473 101.157 65.2017H101.135V68.8359H99.8846V61.4553H101.135V64.9243H101.157C101.198 64.8487 101.258 64.7645 101.334 64.6729L103.862 61.4553H105.36L102.402 64.9964L105.587 68.8359H105.586ZM112.652 68.8359H111.279L110.601 66.959H107.637L106.986 68.8359H105.619L108.441 61.4553H109.85L112.652 68.8359ZM110.272 65.9574L109.225 63.0158C109.193 62.9191 109.159 62.7644 109.125 62.552H109.104C109.073 62.7473 109.037 62.9016 108.999 63.0158L107.962 65.9574H110.272Z" fill="#FEFEFE"/>
<path fill-rule="evenodd" clip-rule="evenodd" d="M76.964 63.6838C77.7882 63.6838 78.4565 64.3383 78.4565 65.1456C78.4565 65.9529 77.7882 66.6074 76.964 66.6074C76.1397 66.6074 75.4714 65.9529 75.4714 65.1456C75.4714 64.3383 76.1397 63.6838 76.964 63.6838Z" fill="#EF7F1A"/>
<path fill-rule="evenodd" clip-rule="evenodd" d="M116.37 63.6838C117.194 63.6838 117.862 64.3383 117.862 65.1456C117.862 65.9529 117.194 66.6074 116.37 66.6074C115.545 66.6074 114.877 65.9529 114.877 65.1456C114.877 64.3383 115.545 63.6838 116.37 63.6838Z" fill="#EF7F1A"/>
<path d="M83.0425 41.0571C79.2664 43.0668 75.0685 44.0714 70.439 44.0714C65.0854 44.0714 60.7489 42.4418 57.4299 39.1741C54.1109 35.907 52.4558 31.5837 52.4558 26.2052C52.4558 20.7085 54.2664 16.1999 57.8952 12.6788C61.5251 9.15776 66.1372 7.39297 71.7229 7.39297C75.749 7.39297 79.1371 7.96738 81.8783 9.12371V15.1943C79.1023 13.3709 75.792 12.459 71.9561 12.459C68.094 12.459 64.9387 13.7084 62.4731 16.1989C60.007 18.6898 58.766 21.9154 58.766 25.8837C58.766 29.9621 59.8347 33.1616 61.9556 35.5003C64.0761 37.8395 66.9558 39.0044 70.5939 39.0044C73.0856 39.0044 75.2408 38.5316 77.0596 37.5941V29.1763H69.4296V24.2115H83.042V41.0561L83.0425 41.0571ZM45.8607 43.4634H39.9038V20.5142C39.9038 18.6317 40.0245 16.3346 40.2572 13.6158H40.1539C39.7832 15.1612 39.4554 16.2755 39.1711 16.9511L28.3607 43.4629H24.2226L13.3867 17.1534C13.085 16.3767 12.7572 15.1943 12.4213 13.6158H12.3262C12.4556 15.0345 12.5246 17.3482 12.5246 20.5648V43.4629H6.97266V8.00093H15.4299L24.9472 31.6172C25.6712 33.4326 26.1457 34.7837 26.3697 35.6696H26.4903C27.1198 33.8122 27.6198 32.4275 28.0074 31.5155L37.7062 8.00093H45.8613V43.4629L45.8607 43.4634Z" fill="#EF7F1A"/>
<path d="M187.988 33.9444C187.414 33.5052 186.581 33.2859 185.502 33.2859C184.095 33.2859 182.918 33.9098 181.973 35.1513C181.028 36.3998 180.558 38.0934 180.558 40.2333V50.0754H175.796V29.4999H180.558V33.7451H180.643C181.105 32.2978 181.819 31.1595 182.786 30.3502C183.752 29.5339 184.823 29.1293 186.014 29.1293C186.875 29.1293 187.533 29.2595 187.988 29.5134V33.9439L187.988 33.9444ZM166.665 37.7714C166.651 36.0978 166.252 34.7947 165.454 33.8623C164.662 32.9298 163.57 32.4631 162.177 32.4631C160.804 32.4631 159.649 32.9503 158.697 33.9309C157.744 34.9114 157.163 36.1874 156.946 37.7714H166.665ZM171.259 41.0636H156.946C156.995 42.9701 157.597 44.445 158.739 45.4806C159.88 46.5162 161.449 47.0305 163.444 47.0305C165.692 47.0305 167.744 46.372 169.621 45.0549V48.8063C167.709 49.9792 165.174 50.5691 162.03 50.5691C158.942 50.5691 156.519 49.6367 154.762 47.7642C153.004 45.8918 152.122 43.2581 152.122 39.8702C152.122 36.6607 153.088 34.0546 155.028 32.0314C156.961 30.0147 159.363 29.0066 162.234 29.0066C165.112 29.0066 167.331 29.912 168.907 31.7224C170.476 33.5332 171.26 36.0497 171.26 39.2733V41.0636H171.259ZM149.474 31.4409L138.13 46.4541H149.432V50.0754H131.463V48.3336L143.053 33.1216H132.57V29.5004H149.474V31.4414V31.4409ZM124.832 37.7714C124.818 36.0978 124.419 34.7947 123.621 33.8623C122.829 32.9298 121.737 32.4631 120.344 32.4631C118.971 32.4631 117.816 32.9503 116.863 33.9309C115.911 34.9114 115.33 36.1874 115.113 37.7714H124.832H124.832ZM129.426 41.0636H115.112C115.161 42.9701 115.763 44.445 116.905 45.4806C118.047 46.5162 119.615 47.0305 121.611 47.0305C123.858 47.0305 125.91 46.372 127.787 45.0549V48.8063C125.875 49.9792 123.34 50.5691 120.196 50.5691C117.108 50.5691 114.685 49.6367 112.927 47.7642C111.17 45.8918 110.287 43.2581 110.287 39.8702C110.287 36.6607 111.254 34.0546 113.194 32.0314C115.127 30.0147 117.528 29.0066 120.399 29.0066C123.278 29.0066 125.497 29.912 127.073 31.7224C128.642 33.5332 129.426 36.0497 129.426 39.2733V41.0636H129.426ZM108.277 33.9444C107.703 33.5052 106.87 33.2859 105.792 33.2859C104.384 33.2859 103.208 33.9098 102.262 35.1513C101.317 36.3998 100.848 38.0934 100.848 40.2333V50.0754H96.0859V29.4999H100.848V33.7451H100.932C101.394 32.2978 102.109 31.1595 103.075 30.3502C104.042 29.5339 105.113 29.1293 106.303 29.1293C107.165 29.1293 107.823 29.2595 108.278 29.5134V33.9439L108.277 33.9444ZM93.4879 23.4098C92.8436 23.0532 92.1083 22.8744 91.2887 22.8744C88.978 22.8744 87.8224 24.1499 87.8224 26.7085V29.4999H92.7035V33.1627H87.8434V50.0754H83.082V33.1627H79.4966V29.4999H83.082V26.1736C83.082 24.0062 83.8101 22.2985 85.2597 21.0435C86.7093 19.7956 88.5229 19.1711 90.6935 19.1711C91.8701 19.1711 92.8012 19.2948 93.4874 19.5482V23.4098H93.4879Z" fill="#FEFEFE"/>
</g>
<defs>
<clipPath id="clip0_2058_14718">
<rect width="195" height="76" fill="white"/>
</clipPath>
</defs>
</svg>
